<?xml version="1.0" encoding="utf-8"?>
<!-- Generator: Adobe Illustrator 17.0.0, SVG Export Plug-In . SVG Version: 6.00 Build 0)  -->
<!DOCTYPE svg PUBLIC "-//W3C//DTD SVG 1.1//EN" "http://www.w3.org/Graphics/SVG/1.1/DTD/svg11.dtd">
<svg version="1.1" id="Capa_1" xmlns="http://www.w3.org/2000/svg" xmlns:xlink="http://www.w3.org/1999/xlink" x="0px" y="0px"
	 width="1024px" height="2000px" viewBox="0 0 1024 2000" enable-background="new 0 0 1024 2000" xml:space="preserve">
<circle fill="#337AB7" cx="512" cy="1000" r="512"/>
<g>
	<polygon fill="#FFFFFF" points="776.828,1000 388.414,1264.828 388.414,1004.82 388.414,735.172 	"/>
	<path fill="#FFFFFF" d="M388.414,1282.483c-2.825,0-5.667-0.671-8.245-2.048c-5.791-3.054-9.41-9.057-9.41-15.607V735.172
		c0-6.55,3.619-12.553,9.41-15.607c5.791-3.072,12.782-2.648,18.202,1.024l388.414,264.828c4.802,3.284,7.698,8.739,7.698,14.583
		s-2.895,11.299-7.715,14.583l-388.414,264.828C395.37,1281.441,391.892,1282.483,388.414,1282.483z M406.069,768.594v462.83
		L745.49,1000L406.069,768.594z"/>
</g>
</svg>
