<?xml version="1.0" encoding="UTF-8" standalone="no"?>
<!-- Created with Inkscape (http://www.inkscape.org/) -->

<svg
   xmlns:dc="http://purl.org/dc/elements/1.1/"
   xmlns:cc="http://creativecommons.org/ns#"
   xmlns:rdf="http://www.w3.org/1999/02/22-rdf-syntax-ns#"
   xmlns:svg="http://www.w3.org/2000/svg"
   xmlns="http://www.w3.org/2000/svg"
   xmlns:sodipodi="http://sodipodi.sourceforge.net/DTD/sodipodi-0.dtd"
   xmlns:inkscape="http://www.inkscape.org/namespaces/inkscape"
   width="58"
   height="58"
   viewBox="0 0 58.000001 58.000001"
   id="svg4318"
   version="1.1"
   inkscape:version="0.91 r13725"
   sodipodi:docname="play.svg">
  <defs
     id="defs4320" />
  <sodipodi:namedview
     id="base"
     pagecolor="#ffffff"
     bordercolor="#666666"
     borderopacity="1.0"
     inkscape:pageopacity="0.0"
     inkscape:pageshadow="2"
     inkscape:zoom="1.4"
     inkscape:cx="-50.688312"
     inkscape:cy="-0.019532341"
     inkscape:document-units="px"
     inkscape:current-layer="layer1"
     showgrid="false"
     units="px"
     inkscape:window-width="1366"
     inkscape:window-height="692"
     inkscape:window-x="0"
     inkscape:window-y="24"
     inkscape:window-maximized="1" />
  <metadata
     id="metadata4323">
    <rdf:RDF>
      <cc:Work
         rdf:about="">
        <dc:format>image/svg+xml</dc:format>
        <dc:type
           rdf:resource="http://purl.org/dc/dcmitype/StillImage" />
        <dc:title></dc:title>
      </cc:Work>
    </rdf:RDF>
  </metadata>
  <g
     inkscape:label="Capa 1"
     inkscape:groupmode="layer"
     id="layer1"
     transform="translate(0,-994.36216)">
    <g
       id="g4350"
       transform="translate(-308.14285,488.14286)">
      <circle
         style="fill:#2c7ead;fill-opacity:1"
         cx="337.14285"
         cy="535.2193"
         r="29"
         id="circle3337" />
      <g
         transform="translate(308.14286,506.21928)"
         id="g3339">
        <polygon
           style="fill:#ffffff"
           points="44,29 22,44 22,29.273 22,14 "
           id="polygon3341" />
        <path
           inkscape:connector-curvature="0"
           style="fill:#ffffff"
           d="M 22,45 C 21.84,45 21.679,44.962 21.533,44.884 21.205,44.711 21,44.371 21,44 l 0,-30 c 0,-0.371 0.205,-0.711 0.533,-0.884 0.328,-0.174 0.724,-0.15 1.031,0.058 l 22,15 C 44.836,28.36 45,28.669 45,29 c 0,0.331 -0.164,0.64 -0.437,0.826 l -22,15 C 22.394,44.941 22.197,45 22,45 Z M 23,15.893 23,42.108 42.225,29 23,15.893 Z"
           id="path3343" />
      </g>
    </g>
  </g>
</svg>
